<mxfile host="Electron" modified="2023-12-15T07:43:39.813Z" agent="Mozilla/5.0 (Windows NT 10.0; Win64; x64) AppleWebKit/537.36 (KHTML, like Gecko) draw.io/21.3.7 Chrome/112.0.5615.204 Electron/24.5.0 Safari/537.36" etag="SLWVzIDaY2JSEwPEcfqc" version="21.3.7" type="device">
  <diagram name="第 1 页" id="6Fkf3rDmpcFc9h3JBbQ1">
    <mxGraphModel dx="1290" dy="621" grid="1" gridSize="10" guides="1" tooltips="1" connect="1" arrows="1" fold="1" page="1" pageScale="1" pageWidth="827" pageHeight="1169" math="0" shadow="0">
      <root>
        <mxCell id="0" />
        <mxCell id="1" parent="0" />
        <mxCell id="NInggC0EF6UWoCEdnl5--4" style="edgeStyle=orthogonalEdgeStyle;rounded=0;orthogonalLoop=1;jettySize=auto;html=1;entryX=0.5;entryY=0;entryDx=0;entryDy=0;" edge="1" parent="1" source="NInggC0EF6UWoCEdnl5--1" target="NInggC0EF6UWoCEdnl5--3">
          <mxGeometry relative="1" as="geometry" />
        </mxCell>
        <mxCell id="NInggC0EF6UWoCEdnl5--11" value="" style="edgeStyle=orthogonalEdgeStyle;rounded=0;orthogonalLoop=1;jettySize=auto;html=1;" edge="1" parent="1" source="NInggC0EF6UWoCEdnl5--1" target="NInggC0EF6UWoCEdnl5--10">
          <mxGeometry relative="1" as="geometry" />
        </mxCell>
        <mxCell id="NInggC0EF6UWoCEdnl5--1" value="按下work按鈕" style="rounded=0;whiteSpace=wrap;html=1;" vertex="1" parent="1">
          <mxGeometry x="130" y="180" width="120" height="60" as="geometry" />
        </mxCell>
        <mxCell id="NInggC0EF6UWoCEdnl5--2" value="開始計算番茄鐘" style="text;html=1;strokeColor=none;fillColor=none;align=center;verticalAlign=middle;whiteSpace=wrap;rounded=0;" vertex="1" parent="1">
          <mxGeometry x="40" y="190" width="60" height="30" as="geometry" />
        </mxCell>
        <mxCell id="NInggC0EF6UWoCEdnl5--6" value="" style="edgeStyle=orthogonalEdgeStyle;rounded=0;orthogonalLoop=1;jettySize=auto;html=1;" edge="1" parent="1" source="NInggC0EF6UWoCEdnl5--3" target="NInggC0EF6UWoCEdnl5--5">
          <mxGeometry relative="1" as="geometry" />
        </mxCell>
        <mxCell id="NInggC0EF6UWoCEdnl5--3" value="結束番茄鐘倒數" style="rounded=0;whiteSpace=wrap;html=1;" vertex="1" parent="1">
          <mxGeometry x="130" y="280" width="120" height="60" as="geometry" />
        </mxCell>
        <mxCell id="NInggC0EF6UWoCEdnl5--8" value="" style="edgeStyle=orthogonalEdgeStyle;rounded=0;orthogonalLoop=1;jettySize=auto;html=1;" edge="1" parent="1" source="NInggC0EF6UWoCEdnl5--5" target="NInggC0EF6UWoCEdnl5--7">
          <mxGeometry relative="1" as="geometry" />
        </mxCell>
        <mxCell id="NInggC0EF6UWoCEdnl5--5" value="紀錄工作項目後&lt;br&gt;按下commit" style="whiteSpace=wrap;html=1;rounded=0;" vertex="1" parent="1">
          <mxGeometry x="130" y="390" width="120" height="60" as="geometry" />
        </mxCell>
        <mxCell id="NInggC0EF6UWoCEdnl5--7" value="儲存資訊息" style="whiteSpace=wrap;html=1;rounded=0;" vertex="1" parent="1">
          <mxGeometry x="130" y="510" width="120" height="60" as="geometry" />
        </mxCell>
        <mxCell id="NInggC0EF6UWoCEdnl5--13" style="edgeStyle=orthogonalEdgeStyle;rounded=0;orthogonalLoop=1;jettySize=auto;html=1;exitX=0.5;exitY=1;exitDx=0;exitDy=0;entryX=1;entryY=0.5;entryDx=0;entryDy=0;" edge="1" parent="1" source="NInggC0EF6UWoCEdnl5--10" target="NInggC0EF6UWoCEdnl5--5">
          <mxGeometry relative="1" as="geometry" />
        </mxCell>
        <mxCell id="NInggC0EF6UWoCEdnl5--10" value="倒數結束前按下work按鈕停止番茄鐘" style="whiteSpace=wrap;html=1;rounded=0;" vertex="1" parent="1">
          <mxGeometry x="285" y="280" width="120" height="60" as="geometry" />
        </mxCell>
      </root>
    </mxGraphModel>
  </diagram>
</mxfile>
